# xmcd
#
# Track frame offsets:
#	183
#	9615
#	21883
#	37913
#	51638
#	64113
#	76313
#	91978
#	107168
#	118718
#	129665
#	139670
#	153443
#	163258
#	181598
#	192078
#	209910
#	226255
#	236283
#	248495
#
# Disc length: 3450 seconds
#
# Revision: 1
# Processed by: cddbd v1.5.1PL0 Copyright (c) Steve Scherf et al.
# Submitted via: audiograbber 1.83.01
#
DISCID=0a0d7814
DTITLE=Burl Ives - Country Gold
DYEAR=1900
DGENRE=Country
TTITLE0=A Liitle Bitty Tear
TTITLE1=Call Me Mr In-Between
TTITLE2=Royal Telephone
TTITLE3=The Long Black Veil
TTITLE4=Lonesome 7-7203
TTITLE5=I Walk The Line
TTITLE6=The Almighty Dollar Bill
TTITLE7=The Blizzard
TTITLE8=Forty Hour Week
TTITLE9=Pearly Shells (Popo O Ewa)
TTITLE10=The Same Old Hurt
TTITLE11=Green Green Grass Of Home
TTITLE12=I'm The Boss
TTITLE13=This All I Ask
TTITLE14=My Gal Sal
TTITLE15=Cool Water
TTITLE16=Mary Ann Regrets
TTITLE17=Busted
TTITLE18=Funny Way Of Laughin'
TTITLE19=Poor Little Jimmie
EXTD=
EXTT0=
EXTT1=
EXTT2=
EXTT3=
EXTT4=
EXTT5=
EXTT6=
EXTT7=
EXTT8=
EXTT9=
EXTT10=
EXTT11=
EXTT12=
EXTT13=
EXTT14=
EXTT15=
EXTT16=
EXTT17=
EXTT18=
EXTT19=
PLAYORDER=
